<svg xmlns="http://www.w3.org/2000/svg" width="24" height="24" fill="none" xmlns:v="https://vecta.io/nano"><g clip-path="url(#A)"><path d="M13.41 12l4.3-4.29c.188-.188.294-.444.294-.71s-.106-.522-.294-.71-.444-.294-.71-.294-.522.106-.71.294L12 10.59l-4.29-4.3c-.188-.188-.444-.294-.71-.294s-.522.106-.71.294-.294.444-.294.71.106.522.294.71l4.3 4.29-4.3 4.29a1 1 0 0 0-.296.71 1 1 0 0 0 .296.71 1 1 0 0 0 .71.296 1 1 0 0 0 .71-.296l4.29-4.3 4.29 4.3a1 1 0 0 0 .71.296 1 1 0 0 0 .71-.296 1 1 0 0 0 .296-.71 1 1 0 0 0-.296-.71L13.41 12z" fill="#000"/></g><defs><clipPath id="A"><path fill="#fff" d="M0 0h24v24H0z"/></clipPath></defs></svg>