<svg xmlns="http://www.w3.org/2000/svg" width="18" height="18" fill="#000" xmlns:v="https://vecta.io/nano"><path d="M8.439 5.323L6.695 7.067 4.768 9.001a1.2 1.2 0 0 0-.308.562l-.679 3.182-.125.587c-.059.286.018.573.213.767a.82.82 0 0 0 .58.235 1.08 1.08 0 0 0 .187-.018l.646-.136 3.087-.65a1.2 1.2 0 0 0 .613-.33l8.655-8.655c.213-.213.33-.466.36-.778a.51.51 0 0 0-.011-.15l-.051-.224c-.04-.187-.084-.4-.172-.606-.54-1.233-1.435-2.114-2.661-2.61-.246-.099-.507-.132-.734-.162l-.062-.007c-.33-.04-.631.07-.892.334L8.439 5.323zm5.745-4.43l.081.007c.191.022.367.044.507.103a3.92 3.92 0 0 1 2.177 2.136 2.29 2.29 0 0 1 .117.426l.037.176a.28.28 0 0 1-.092.158L8.35 12.554a.29.29 0 0 1-.158.084l-3.091.65-.543.114.103-.481.675-3.175a.32.32 0 0 1 .07-.121l1.92-1.927L9.07 5.955 14.055.962c.07-.059.103-.07.128-.07zM1.428 4.002h6.409a.452.452 0 1 0 0-.903H1.428A1.43 1.43 0 0 0 0 4.527v12.018a1.43 1.43 0 0 0 1.428 1.428h12.014a1.43 1.43 0 0 0 1.428-1.428v-6.148a.452.452 0 1 0-.903 0v6.148a.53.53 0 0 1-.529.529H1.428a.53.53 0 0 1-.529-.529V4.53a.53.53 0 0 1 .529-.529z"/></svg>