<?xml version="1.0" encoding="utf-8"?>
<!-- Generator: Adobe Illustrator 25.2.0, SVG Export Plug-In . SVG Version: 6.00 Build 0)  -->
<svg version="1.0" id="Calque_1" xmlns="http://www.w3.org/2000/svg" xmlns:xlink="http://www.w3.org/1999/xlink" x="0px" y="0px"
	 viewBox="0 0 367 59" style="enable-background:new 0 0 367 59;" xml:space="preserve">
<style type="text/css">
	.st0{fill:#FFFFFF;}
</style>
<rect width="367" height="59"/>
<path class="st0" d="M40,24.4V35h-1.2v-6.6l0.1-2.8h0L35.5,35h-1.1l-3.5-9.4h0l0.1,2.8V35h-1.2V24.4h2l2.3,6.4l0.8,2.6h0l0.8-2.6
	l2.3-6.4H40z M46.4,26.8c0.8,0,1.4,0.2,2,0.5c0.6,0.3,1,0.8,1.4,1.4c0.3,0.6,0.5,1.4,0.5,2.2s-0.2,1.6-0.5,2.2
	c-0.3,0.6-0.8,1.1-1.4,1.4c-0.6,0.3-1.2,0.5-2,0.5c-0.7,0-1.4-0.2-2-0.5c-0.6-0.3-1-0.8-1.4-1.4c-0.3-0.6-0.5-1.4-0.5-2.2
	s0.2-1.6,0.5-2.2c0.3-0.6,0.8-1.1,1.4-1.4C45,27,45.7,26.8,46.4,26.8z M46.4,27.9c-0.5,0-1,0.1-1.4,0.4c-0.4,0.2-0.7,0.6-0.9,1.1
	c-0.2,0.4-0.3,1-0.3,1.6c0,0.6,0.1,1.2,0.3,1.6c0.2,0.5,0.5,0.8,0.9,1.1c0.4,0.2,0.8,0.4,1.4,0.4s1-0.1,1.4-0.4
	c0.4-0.2,0.7-0.6,0.9-1.1c0.2-0.5,0.3-1,0.3-1.6c0-0.6-0.1-1.2-0.3-1.6c-0.2-0.5-0.5-0.8-0.9-1.1C47.4,28.1,47,27.9,46.4,27.9z
	 M55.8,35.2c-0.7,0-1.3-0.2-1.8-0.5c-0.6-0.3-1-0.8-1.3-1.4c-0.3-0.6-0.5-1.4-0.5-2.2c0-0.9,0.2-1.6,0.5-2.3
	c0.4-0.6,0.8-1.1,1.4-1.4c0.6-0.3,1.2-0.5,1.9-0.5c0.7,0,1.2,0.2,1.7,0.5c0.5,0.3,0.8,0.8,1,1.4l-0.2,0.1v-5.5h1.3V35h-1.1l-0.1-1.9
	l0.2-0.1c-0.1,0.5-0.3,0.9-0.5,1.2c-0.3,0.3-0.6,0.6-1,0.7C56.7,35.1,56.3,35.2,55.8,35.2z M56,34c0.5,0,1-0.1,1.3-0.4
	c0.4-0.3,0.7-0.6,0.9-1.1c0.2-0.5,0.3-1,0.3-1.7c0-0.6-0.1-1.1-0.3-1.6c-0.2-0.4-0.5-0.8-0.9-1C56.9,28.1,56.5,28,56,28
	c-0.8,0-1.4,0.3-1.9,0.8c-0.4,0.6-0.7,1.3-0.7,2.2s0.2,1.7,0.7,2.2C54.6,33.8,55.2,34,56,34z M66.1,35.2c-0.8,0-1.4-0.2-2-0.5
	c-0.6-0.3-1-0.8-1.4-1.4c-0.3-0.6-0.5-1.4-0.5-2.2s0.2-1.6,0.5-2.2c0.3-0.6,0.8-1.1,1.4-1.4s1.2-0.5,2-0.5c0.7,0,1.4,0.2,1.9,0.5
	c0.5,0.3,0.9,0.8,1.2,1.3c0.3,0.5,0.4,1.2,0.4,1.8c0,0.2,0,0.3,0,0.5c0,0.1,0,0.3,0,0.4H63v-1.1h5.9l-0.7,0.1c0-0.8-0.2-1.4-0.6-1.8
	c-0.4-0.4-1-0.6-1.6-0.6c-0.5,0-1,0.1-1.4,0.4c-0.4,0.2-0.7,0.6-0.9,1c-0.2,0.4-0.3,1-0.3,1.6c0,0.6,0.1,1.2,0.3,1.6
	c0.2,0.5,0.5,0.8,0.9,1.1C65,33.9,65.5,34,66,34c0.6,0,1.1-0.1,1.4-0.3c0.4-0.2,0.7-0.5,0.9-0.9l1,0.6c-0.2,0.4-0.5,0.7-0.8,0.9
	c-0.3,0.3-0.7,0.5-1.1,0.6C67.1,35.1,66.6,35.2,66.1,35.2z M80.8,35.2c-0.8,0-1.4-0.2-2-0.5c-0.6-0.3-1-0.8-1.4-1.4
	c-0.3-0.6-0.5-1.4-0.5-2.2s0.2-1.6,0.5-2.2c0.3-0.6,0.8-1.1,1.4-1.4s1.2-0.5,2-0.5c0.7,0,1.4,0.2,1.9,0.5c0.5,0.3,0.9,0.8,1.2,1.3
	c0.3,0.5,0.4,1.2,0.4,1.8c0,0.2,0,0.3,0,0.5c0,0.1,0,0.3,0,0.4h-6.5v-1.1h5.9l-0.7,0.1c0-0.8-0.2-1.4-0.6-1.8
	c-0.4-0.4-1-0.6-1.6-0.6c-0.5,0-1,0.1-1.4,0.4c-0.4,0.2-0.7,0.6-0.9,1c-0.2,0.4-0.3,1-0.3,1.6c0,0.6,0.1,1.2,0.3,1.6
	c0.2,0.5,0.5,0.8,0.9,1.1c0.4,0.2,0.9,0.4,1.4,0.4c0.6,0,1.1-0.1,1.4-0.3c0.4-0.2,0.7-0.5,0.9-0.9l1,0.6c-0.2,0.4-0.5,0.7-0.8,0.9
	c-0.3,0.3-0.7,0.5-1.1,0.6C81.8,35.1,81.3,35.2,80.8,35.2z M81,23h1.4l-1.6,2.7h-1L81,23z M89.8,35.2c-0.7,0-1.3-0.2-1.8-0.5
	s-1-0.8-1.3-1.4c-0.3-0.6-0.5-1.4-0.5-2.2c0-0.9,0.2-1.6,0.5-2.3c0.4-0.6,0.8-1.1,1.4-1.4c0.6-0.3,1.2-0.5,1.9-0.5
	c0.7,0,1.2,0.2,1.7,0.5c0.5,0.3,0.8,0.8,1,1.4l-0.2,0.1v-5.5h1.3V35h-1.1l-0.1-1.9l0.2-0.1c-0.1,0.5-0.3,0.9-0.5,1.2
	c-0.3,0.3-0.6,0.6-1,0.7C90.7,35.1,90.2,35.2,89.8,35.2z M89.9,34c0.5,0,1-0.1,1.3-0.4c0.4-0.3,0.7-0.6,0.9-1.1
	c0.2-0.5,0.3-1,0.3-1.7c0-0.6-0.1-1.1-0.3-1.6c-0.2-0.4-0.5-0.8-0.9-1C90.9,28.1,90.5,28,90,28c-0.8,0-1.4,0.3-1.9,0.8
	c-0.4,0.6-0.7,1.3-0.7,2.2s0.2,1.7,0.7,2.2S89.1,34,89.9,34z M97.3,25.5c-0.3,0-0.5-0.1-0.7-0.3c-0.2-0.2-0.3-0.4-0.3-0.7
	s0.1-0.5,0.3-0.7c0.2-0.2,0.4-0.3,0.7-0.3c0.3,0,0.5,0.1,0.7,0.3c0.2,0.2,0.3,0.4,0.3,0.7S98.2,25,98,25.2
	C97.8,25.4,97.6,25.5,97.3,25.5z M98,27v8h-1.3v-8H98z M102.8,24.7v8.1c0,0.4,0.1,0.7,0.3,0.9c0.2,0.2,0.5,0.3,0.9,0.3
	c0.3,0,0.6-0.1,0.8-0.2s0.4-0.3,0.6-0.4l0.4,1.1c-0.2,0.2-0.5,0.4-0.9,0.5c-0.3,0.1-0.7,0.2-1.2,0.2c-0.4,0-0.8-0.1-1.1-0.2
	c-0.4-0.1-0.6-0.4-0.8-0.7c-0.2-0.3-0.3-0.7-0.3-1.2v-7.9L102.8,24.7z M105.7,27v1.1h-5.8V27H105.7z M108.3,25.5
	c-0.3,0-0.5-0.1-0.7-0.3c-0.2-0.2-0.3-0.4-0.3-0.7s0.1-0.5,0.3-0.7c0.2-0.2,0.4-0.3,0.7-0.3s0.5,0.1,0.7,0.3
	c0.2,0.2,0.3,0.4,0.3,0.7s-0.1,0.5-0.3,0.7C108.8,25.4,108.6,25.5,108.3,25.5z M108.9,27v8h-1.3v-8H108.9z M115.2,26.8
	c0.8,0,1.4,0.2,2,0.5c0.6,0.3,1,0.8,1.4,1.4c0.3,0.6,0.5,1.4,0.5,2.2s-0.2,1.6-0.5,2.2c-0.3,0.6-0.8,1.1-1.4,1.4
	c-0.6,0.3-1.2,0.5-2,0.5c-0.7,0-1.4-0.2-2-0.5c-0.6-0.3-1-0.8-1.4-1.4c-0.3-0.6-0.5-1.4-0.5-2.2s0.2-1.6,0.5-2.2
	c0.3-0.6,0.8-1.1,1.4-1.4C113.8,27,114.5,26.8,115.2,26.8z M115.2,27.9c-0.5,0-1,0.1-1.4,0.4c-0.4,0.2-0.7,0.6-0.9,1.1
	c-0.2,0.4-0.3,1-0.3,1.6c0,0.6,0.1,1.2,0.3,1.6c0.2,0.5,0.5,0.8,0.9,1.1c0.4,0.2,0.8,0.4,1.4,0.4s1-0.1,1.4-0.4
	c0.4-0.2,0.7-0.6,0.9-1.1c0.2-0.5,0.3-1,0.3-1.6c0-0.6-0.1-1.2-0.3-1.6c-0.2-0.5-0.5-0.8-0.9-1.1C116.2,28.1,115.8,27.9,115.2,27.9z
	 M121.5,35v-8h1.1l0.1,1.8l-0.2-0.2c0.2-0.4,0.4-0.8,0.7-1c0.3-0.3,0.6-0.5,1-0.6c0.4-0.1,0.8-0.2,1.2-0.2c0.6,0,1.1,0.1,1.6,0.3
	c0.5,0.2,0.8,0.5,1.1,1c0.3,0.4,0.4,1,0.4,1.7V35h-1.3v-4.7c0-0.9-0.2-1.5-0.6-1.8c-0.4-0.4-0.8-0.5-1.4-0.5c-0.4,0-0.8,0.1-1.2,0.3
	c-0.4,0.2-0.7,0.5-1,0.9c-0.2,0.4-0.4,0.9-0.4,1.6V35H121.5z"/>
<path class="st0" d="M8.9,25.6l-1.8,1.8c-0.7,0.7-1.4,1.4-2,2c-0.2,0.2-0.3,0.4-0.3,0.6c-0.2,1.1-0.5,2.2-0.7,3.4l-0.1,0.6
	c-0.1,0.3,0,0.6,0.2,0.8c0.2,0.2,0.4,0.2,0.6,0.2c0.1,0,0.1,0,0.2,0L5.6,35c1.1-0.2,2.2-0.5,3.3-0.7c0.3-0.1,0.5-0.2,0.6-0.3
	c3-3,6.1-6.1,9.1-9.1c0.2-0.2,0.3-0.5,0.4-0.8c0-0.1,0-0.1,0-0.2c0-0.1,0-0.2-0.1-0.2c0-0.2-0.1-0.4-0.2-0.6
	c-0.6-1.3-1.5-2.2-2.8-2.8c-0.3-0.1-0.5-0.1-0.8-0.2l-0.1,0c-0.3,0-0.7,0.1-0.9,0.4C12.4,22.1,10.7,23.9,8.9,25.6z M15,20.9
	C15,20.9,15,20.9,15,20.9L15,20.9c0.3,0,0.5,0.1,0.6,0.1c1.1,0.4,1.8,1.2,2.3,2.3c0.1,0.1,0.1,0.3,0.1,0.4c0,0.1,0,0.1,0,0.2
	c0,0.1,0,0.1-0.1,0.2c-3,3-6.1,6.1-9.1,9.1c0,0.1-0.1,0.1-0.2,0.1c-1.1,0.2-2.2,0.5-3.3,0.7l-0.6,0.1l0.1-0.5
	c0.2-1.1,0.5-2.2,0.7-3.4c0,0,0-0.1,0.1-0.1c0.7-0.7,1.3-1.4,2-2l1.8-1.8c1.8-1.8,3.5-3.5,5.3-5.3C14.9,21,14.9,20.9,15,20.9z"/>
<path class="st0" d="M1.5,24.2h6.8c0.3,0,0.5-0.2,0.5-0.5c0-0.3-0.2-0.5-0.5-0.5H1.5c-0.8,0-1.5,0.7-1.5,1.5v12.7
	C0,38.3,0.7,39,1.5,39h12.7c0.8,0,1.5-0.7,1.5-1.5V31c0-0.3-0.2-0.5-0.5-0.5c-0.3,0-0.5,0.2-0.5,0.5v6.5c0,0.3-0.3,0.6-0.6,0.6H1.5
	c-0.3,0-0.6-0.3-0.6-0.6V24.8C0.9,24.5,1.2,24.2,1.5,24.2z"/>
<path class="st0" d="M170,10h178c10.5,0,19,8.5,19,19l0,0c0,10.5-8.5,19-19,19H170c-10.5,0-19-8.5-19-19l0,0
	C151,18.5,159.5,10,170,10z"/>
<path d="M175.6,36.9V27h1.3l0.1,2l-0.2-0.2c0.1-0.4,0.3-0.7,0.5-1c0.2-0.3,0.5-0.5,0.9-0.7c0.4-0.2,0.7-0.2,1.2-0.2
	c0.6,0,1.1,0.1,1.6,0.4c0.5,0.3,0.8,0.7,1.1,1.2c0.3,0.5,0.4,1.2,0.4,1.9s-0.1,1.4-0.4,2c-0.3,0.5-0.6,1-1.1,1.2
	c-0.5,0.3-1,0.4-1.6,0.4c-0.6,0-1.1-0.2-1.5-0.5c-0.4-0.3-0.7-0.7-0.9-1.2l0.2-0.2v4.7H175.6z M179,32.9c0.6,0,1.1-0.2,1.4-0.6
	c0.3-0.4,0.5-1,0.5-1.8s-0.2-1.3-0.5-1.8c-0.3-0.4-0.8-0.7-1.4-0.7c-0.4,0-0.7,0.1-1,0.3c-0.3,0.2-0.5,0.5-0.7,0.8
	c-0.2,0.4-0.2,0.8-0.2,1.3c0,0.5,0.1,0.9,0.2,1.3c0.2,0.4,0.4,0.6,0.7,0.8C178.3,32.8,178.6,32.9,179,32.9z M186.9,34.1
	c-0.5,0-0.9-0.1-1.3-0.3c-0.4-0.2-0.7-0.4-0.9-0.8c-0.2-0.4-0.3-0.9-0.3-1.5V27h1.5v4.2c0,0.6,0.1,1.1,0.4,1.3
	c0.3,0.2,0.6,0.4,1.1,0.4c0.2,0,0.5,0,0.7-0.1c0.2-0.1,0.4-0.2,0.6-0.4c0.2-0.2,0.3-0.4,0.4-0.7c0.1-0.3,0.2-0.6,0.2-1V27h1.5v7
	h-1.3l-0.1-1.1c-0.2,0.4-0.6,0.8-1,1C187.9,34,187.4,34.1,186.9,34.1z M196.8,34.1c-0.4,0-0.8-0.1-1.1-0.2c-0.3-0.2-0.6-0.4-0.9-0.7
	c-0.2-0.3-0.4-0.6-0.5-1l0.2-0.2l-0.1,2H193V23.9h1.5v4.9l-0.2-0.2c0.2-0.5,0.5-0.9,0.9-1.2c0.4-0.3,0.9-0.5,1.6-0.5
	c0.6,0,1.1,0.1,1.5,0.4c0.5,0.3,0.8,0.7,1.1,1.2c0.3,0.5,0.4,1.2,0.4,2c0,0.8-0.1,1.4-0.4,1.9c-0.3,0.5-0.6,1-1.1,1.2
	C197.9,34,197.4,34.1,196.8,34.1z M196.5,32.9c0.6,0,1.1-0.2,1.4-0.6c0.3-0.4,0.5-1,0.5-1.8s-0.2-1.3-0.5-1.8s-0.8-0.6-1.4-0.6
	c-0.4,0-0.7,0.1-1,0.3c-0.3,0.2-0.5,0.5-0.7,0.8c-0.2,0.4-0.2,0.8-0.2,1.3c0,0.5,0.1,0.9,0.2,1.3c0.2,0.4,0.4,0.6,0.7,0.8
	C195.7,32.8,196.1,32.9,196.5,32.9z M203.3,23.9V32c0,0.3,0.1,0.6,0.2,0.7c0.1,0.1,0.3,0.2,0.6,0.2c0.2,0,0.3,0,0.4,0
	c0.1,0,0.3-0.1,0.4-0.1l-0.2,1.1c-0.2,0.1-0.3,0.1-0.5,0.2c-0.2,0-0.4,0.1-0.6,0.1c-0.6,0-1.1-0.2-1.4-0.5c-0.3-0.3-0.4-0.8-0.4-1.5
	v-8.3H203.3z M206.9,25.8c-0.3,0-0.6-0.1-0.8-0.2c-0.2-0.2-0.3-0.4-0.3-0.7s0.1-0.5,0.3-0.7c0.2-0.2,0.4-0.2,0.8-0.2
	c0.3,0,0.6,0.1,0.7,0.2c0.2,0.2,0.3,0.4,0.3,0.7s-0.1,0.5-0.3,0.7C207.5,25.7,207.2,25.8,206.9,25.8z M207.7,27v7h-1.5v-7H207.7z
	 M213.1,34.1c-0.7,0-1.3-0.1-1.8-0.4c-0.5-0.3-0.9-0.7-1.2-1.2c-0.3-0.6-0.4-1.2-0.4-2s0.1-1.4,0.4-1.9c0.3-0.6,0.7-1,1.2-1.3
	c0.5-0.3,1.1-0.4,1.8-0.4c0.7,0,1.3,0.1,1.7,0.4c0.5,0.3,0.8,0.7,1.1,1.1s0.4,1,0.4,1.7c0,0.2,0,0.3,0,0.5c0,0.1,0,0.3,0,0.4h-5.6
	v-1.1h5l-0.7,0.2c0-0.6-0.2-1.1-0.5-1.5c-0.3-0.3-0.8-0.5-1.3-0.5c-0.4,0-0.8,0.1-1,0.3c-0.3,0.2-0.5,0.5-0.7,0.8
	c-0.2,0.4-0.2,0.8-0.2,1.3c0,0.5,0.1,1,0.3,1.3c0.2,0.4,0.4,0.6,0.7,0.8c0.3,0.2,0.7,0.3,1.1,0.3c0.5,0,0.8-0.1,1.1-0.3
	c0.3-0.2,0.5-0.4,0.7-0.7l1.2,0.6c-0.2,0.3-0.4,0.6-0.7,0.9c-0.3,0.2-0.6,0.4-1,0.6C214,34.1,213.6,34.1,213.1,34.1z M218.1,34v-7
	h1.3l0.1,1.3c0.2-0.5,0.5-0.8,0.8-1c0.4-0.2,0.8-0.4,1.4-0.4c0.1,0,0.3,0,0.4,0c0.1,0,0.3,0.1,0.4,0.1l-0.2,1.3
	c-0.1,0-0.2-0.1-0.3-0.1c-0.1,0-0.3,0-0.5,0c-0.3,0-0.6,0.1-0.9,0.2c-0.3,0.1-0.5,0.4-0.7,0.7c-0.2,0.3-0.3,0.7-0.3,1.2V34H218.1z
	 M229.6,23.9V32c0,0.3,0.1,0.6,0.2,0.7c0.1,0.1,0.3,0.2,0.6,0.2c0.2,0,0.3,0,0.4,0c0.1,0,0.3-0.1,0.4-0.1l-0.2,1.1
	c-0.2,0.1-0.3,0.1-0.5,0.2c-0.2,0-0.4,0.1-0.6,0.1c-0.6,0-1.1-0.2-1.4-0.5c-0.3-0.3-0.4-0.8-0.4-1.5v-8.3H229.6z M235.6,34.1
	c-0.7,0-1.3-0.1-1.8-0.4c-0.5-0.3-0.9-0.7-1.2-1.2c-0.3-0.6-0.4-1.2-0.4-2s0.1-1.4,0.4-1.9c0.3-0.6,0.7-1,1.2-1.3
	c0.5-0.3,1.1-0.4,1.8-0.4c0.7,0,1.3,0.1,1.7,0.4c0.5,0.3,0.8,0.7,1.1,1.1s0.4,1,0.4,1.7c0,0.2,0,0.3,0,0.5c0,0.1,0,0.3,0,0.4H233
	v-1.1h5l-0.7,0.2c0-0.6-0.2-1.1-0.5-1.5c-0.3-0.3-0.8-0.5-1.3-0.5c-0.4,0-0.8,0.1-1,0.3c-0.3,0.2-0.5,0.5-0.7,0.8
	c-0.2,0.4-0.2,0.8-0.2,1.3c0,0.5,0.1,1,0.3,1.3s0.4,0.6,0.7,0.8c0.3,0.2,0.7,0.3,1.1,0.3c0.5,0,0.8-0.1,1.1-0.3
	c0.3-0.2,0.5-0.4,0.7-0.7l1.2,0.6c-0.2,0.3-0.4,0.6-0.7,0.9c-0.3,0.2-0.6,0.4-1,0.6C236.5,34.1,236.1,34.1,235.6,34.1z M243.3,34.1
	c-0.7,0-1.3-0.1-1.9-0.4c-0.6-0.3-1-0.7-1.4-1.1l1-0.9c0.2,0.4,0.5,0.7,0.9,0.9c0.4,0.2,0.9,0.3,1.4,0.3c0.4,0,0.8-0.1,1-0.2
	c0.3-0.1,0.4-0.4,0.4-0.6c0-0.2-0.1-0.3-0.2-0.5c-0.1-0.1-0.3-0.2-0.7-0.3l-1.5-0.3c-0.7-0.1-1.3-0.4-1.6-0.7
	c-0.3-0.3-0.5-0.8-0.5-1.3c0-0.4,0.1-0.7,0.3-1.1s0.6-0.6,1-0.8c0.4-0.2,1-0.3,1.6-0.3c0.7,0,1.3,0.1,1.8,0.4c0.5,0.2,0.9,0.6,1.1,1
	l-1,0.9c-0.2-0.4-0.4-0.6-0.8-0.8c-0.3-0.2-0.7-0.3-1.1-0.3c-0.3,0-0.6,0-0.8,0.1c-0.2,0.1-0.4,0.2-0.5,0.3
	c-0.1,0.1-0.2,0.3-0.2,0.5c0,0.2,0.1,0.4,0.2,0.5c0.1,0.1,0.4,0.2,0.8,0.3l1.6,0.3c0.7,0.1,1.1,0.4,1.4,0.7c0.3,0.3,0.4,0.7,0.4,1.1
	s-0.1,0.8-0.4,1.2c-0.2,0.3-0.6,0.6-1,0.8C244.4,34,243.9,34.1,243.3,34.1z M255.6,26.9c0.6,0,1,0.1,1.4,0.3c0.4,0.2,0.7,0.4,1,0.7
	s0.5,0.6,0.6,1l-1.4,0.6c-0.1-0.4-0.3-0.8-0.6-1c-0.3-0.2-0.6-0.4-1-0.4c-0.4,0-0.8,0.1-1.1,0.3c-0.3,0.2-0.5,0.5-0.7,0.8
	c-0.1,0.4-0.2,0.8-0.2,1.3c0,0.5,0.1,1,0.2,1.3s0.4,0.6,0.7,0.8c0.3,0.2,0.7,0.3,1.1,0.3c0.3,0,0.6-0.1,0.8-0.2
	c0.2-0.1,0.4-0.3,0.6-0.5c0.2-0.2,0.3-0.5,0.3-0.7l1.4,0.5c-0.1,0.4-0.3,0.8-0.6,1.1c-0.3,0.3-0.6,0.6-1,0.7
	c-0.4,0.2-0.9,0.3-1.4,0.3c-0.7,0-1.3-0.1-1.8-0.4c-0.5-0.3-0.9-0.7-1.2-1.2c-0.3-0.6-0.4-1.2-0.4-2s0.1-1.4,0.4-1.9
	c0.3-0.6,0.7-1,1.2-1.3C254.3,27,254.9,26.9,255.6,26.9z M260.4,34V23.9h1.5v4.3c0.2-0.4,0.5-0.8,0.9-1c0.4-0.2,0.8-0.3,1.3-0.3
	c0.5,0,0.9,0.1,1.3,0.3c0.4,0.2,0.7,0.5,1,0.9c0.2,0.4,0.4,0.9,0.4,1.5V34h-1.5v-4.1c0-0.7-0.1-1.2-0.4-1.4
	c-0.3-0.3-0.6-0.4-1.1-0.4c-0.3,0-0.6,0.1-0.9,0.2c-0.3,0.1-0.5,0.4-0.7,0.7c-0.2,0.3-0.3,0.7-0.3,1.3V34H260.4z M273.1,29.5
	c0-0.5-0.1-0.8-0.4-1.1c-0.3-0.3-0.6-0.4-1.1-0.4c-0.4,0-0.8,0.1-1.1,0.3c-0.3,0.2-0.5,0.5-0.7,1l-1.3-0.5c0.2-0.6,0.5-1,1-1.4
	c0.5-0.3,1.2-0.5,2-0.5c0.6,0,1.1,0.1,1.5,0.3c0.4,0.2,0.8,0.4,1,0.8c0.3,0.4,0.4,0.8,0.4,1.4v3.1c0,0.3,0.2,0.5,0.5,0.5
	c0.2,0,0.3,0,0.5-0.1l-0.1,1c-0.2,0.1-0.5,0.2-0.8,0.2c-0.3,0-0.6-0.1-0.8-0.2c-0.2-0.1-0.4-0.3-0.6-0.5c-0.1-0.2-0.2-0.5-0.2-0.8
	v-0.1l0.3,0c-0.1,0.4-0.3,0.7-0.5,0.9c-0.3,0.2-0.6,0.4-0.9,0.5c-0.3,0.1-0.7,0.2-1,0.2c-0.4,0-0.8-0.1-1.2-0.2
	c-0.3-0.1-0.6-0.3-0.8-0.6c-0.2-0.3-0.3-0.6-0.3-1.1c0-0.5,0.2-1,0.5-1.3c0.3-0.3,0.8-0.6,1.5-0.7l2.7-0.5l0,1.1l-2,0.4
	c-0.4,0.1-0.7,0.2-0.9,0.3c-0.2,0.1-0.3,0.3-0.3,0.6c0,0.3,0.1,0.5,0.3,0.6c0.2,0.1,0.5,0.2,0.8,0.2c0.2,0,0.5,0,0.7-0.1
	c0.2-0.1,0.4-0.1,0.6-0.3c0.2-0.1,0.3-0.3,0.4-0.5c0.1-0.2,0.2-0.4,0.2-0.7V29.5z M277.1,34v-7h1.3l0.1,1.8l-0.2-0.2
	c0.1-0.4,0.3-0.7,0.6-1c0.3-0.3,0.5-0.5,0.9-0.6c0.3-0.1,0.7-0.2,1.1-0.2c0.5,0,0.9,0.1,1.3,0.3c0.4,0.2,0.7,0.5,1,0.9
	c0.2,0.4,0.4,0.9,0.4,1.5V34H282v-4.1c0-0.7-0.1-1.2-0.4-1.4c-0.3-0.3-0.6-0.4-1.1-0.4c-0.3,0-0.6,0.1-0.9,0.2
	c-0.3,0.1-0.5,0.4-0.7,0.7c-0.2,0.3-0.3,0.7-0.3,1.3V34H277.1z M291.9,25.5l0.2,1.2c0,0-0.1,0-0.1,0c0,0-0.1,0-0.1,0
	c-0.4,0-0.8,0.1-1,0.3c-0.2,0.2-0.3,0.5-0.3,0.8l-0.7-0.3c0-0.4,0.1-0.7,0.2-1c0.2-0.3,0.4-0.5,0.7-0.7c0.3-0.2,0.6-0.3,1-0.3
	C291.8,25.5,291.8,25.5,291.9,25.5C291.9,25.5,291.9,25.5,291.9,25.5z M289.7,32.9c0.7,0,1.3,0.2,1.7,0.5c0.4,0.3,0.6,0.7,0.6,1.3
	c0,0.5-0.2,0.9-0.5,1.2c-0.3,0.4-0.7,0.6-1.3,0.8c-0.5,0.2-1.1,0.3-1.8,0.3c-1.1,0-2-0.2-2.5-0.5c-0.6-0.4-0.8-0.8-0.8-1.3
	c0-0.4,0.1-0.7,0.4-1c0.3-0.3,0.7-0.4,1.4-0.5l-0.1,0.2c-0.4-0.1-0.7-0.2-1-0.4c-0.2-0.2-0.3-0.5-0.3-0.9c0-0.4,0.2-0.7,0.5-1
	c0.3-0.3,0.7-0.4,1.3-0.5l0.8,0.4h-0.2c-0.4,0-0.7,0.1-0.9,0.3c-0.2,0.2-0.3,0.3-0.3,0.5c0,0.2,0.1,0.4,0.3,0.5
	c0.2,0.1,0.4,0.2,0.7,0.2H289.7z M288.4,35.9c0.5,0,0.9-0.1,1.3-0.2c0.3-0.1,0.6-0.2,0.7-0.4c0.2-0.1,0.3-0.3,0.3-0.5
	c0-0.2-0.1-0.4-0.3-0.5c-0.2-0.1-0.5-0.2-0.9-0.2h-2.3c-0.3,0-0.5,0.1-0.7,0.2c-0.2,0.1-0.3,0.3-0.3,0.6c0,0.3,0.2,0.6,0.6,0.7
	C287.2,35.8,287.8,35.9,288.4,35.9z M288.4,26.9c0.6,0,1.1,0.1,1.6,0.3c0.5,0.2,0.8,0.5,1,0.8c0.3,0.4,0.4,0.8,0.4,1.2
	s-0.1,0.9-0.4,1.2c-0.2,0.4-0.6,0.6-1,0.8c-0.4,0.2-1,0.3-1.6,0.3c-1,0-1.7-0.2-2.2-0.6c-0.5-0.4-0.8-1-0.8-1.7
	c0-0.5,0.1-0.9,0.4-1.2c0.3-0.4,0.6-0.6,1-0.8C287.2,27,287.8,26.9,288.4,26.9z M288.4,27.9c-0.4,0-0.8,0.1-1.1,0.4
	c-0.3,0.2-0.4,0.6-0.4,1s0.1,0.7,0.4,1c0.3,0.2,0.6,0.4,1.1,0.4c0.4,0,0.8-0.1,1.1-0.4c0.3-0.2,0.4-0.6,0.4-1s-0.1-0.7-0.4-1
	C289.2,28,288.8,27.9,288.4,27.9z M296.4,34.1c-0.7,0-1.3-0.1-1.8-0.4c-0.5-0.3-0.9-0.7-1.2-1.2c-0.3-0.6-0.4-1.2-0.4-2
	s0.1-1.4,0.4-1.9c0.3-0.6,0.7-1,1.2-1.3c0.5-0.3,1.1-0.4,1.8-0.4c0.7,0,1.3,0.1,1.7,0.4c0.5,0.3,0.8,0.7,1.1,1.1s0.4,1,0.4,1.7
	c0,0.2,0,0.3,0,0.5c0,0.1,0,0.3,0,0.4h-5.6v-1.1h5l-0.7,0.2c0-0.6-0.2-1.1-0.5-1.5c-0.3-0.3-0.8-0.5-1.3-0.5c-0.4,0-0.8,0.1-1,0.3
	c-0.3,0.2-0.5,0.5-0.7,0.8c-0.2,0.4-0.2,0.8-0.2,1.3c0,0.5,0.1,1,0.3,1.3c0.2,0.4,0.4,0.6,0.7,0.8c0.3,0.2,0.7,0.3,1.1,0.3
	c0.5,0,0.8-0.1,1.1-0.3c0.3-0.2,0.5-0.4,0.7-0.7l1.2,0.6c-0.2,0.3-0.4,0.6-0.7,0.9c-0.3,0.2-0.6,0.4-1,0.6
	C297.3,34.1,296.9,34.1,296.4,34.1z M301.4,34v-7h1.3l0.1,1.2c0.2-0.4,0.6-0.8,1-1c0.4-0.2,0.8-0.3,1.3-0.3c0.5,0,1,0.1,1.4,0.3
	c0.4,0.2,0.8,0.6,1,1c0.1-0.3,0.4-0.6,0.6-0.8c0.3-0.2,0.6-0.4,0.9-0.4c0.3-0.1,0.6-0.2,0.9-0.2c0.4,0,0.9,0.1,1.3,0.3
	c0.4,0.2,0.7,0.5,1,0.9c0.2,0.4,0.4,0.9,0.4,1.5V34h-1.5v-4.3c0-0.6-0.1-1-0.4-1.2c-0.3-0.3-0.6-0.4-1-0.4c-0.3,0-0.6,0.1-0.9,0.2
	c-0.3,0.2-0.5,0.4-0.7,0.7c-0.2,0.3-0.3,0.7-0.3,1.1V34h-1.5v-4.3c0-0.6-0.1-1-0.4-1.2c-0.3-0.3-0.6-0.4-1-0.4
	c-0.3,0-0.6,0.1-0.8,0.2s-0.5,0.4-0.7,0.7c-0.2,0.3-0.3,0.7-0.3,1.3V34H301.4z M317.8,34.1c-0.7,0-1.3-0.1-1.8-0.4
	c-0.5-0.3-0.9-0.7-1.2-1.2c-0.3-0.6-0.4-1.2-0.4-2s0.1-1.4,0.4-1.9c0.3-0.6,0.7-1,1.2-1.3c0.5-0.3,1.1-0.4,1.8-0.4
	c0.7,0,1.3,0.1,1.7,0.4c0.5,0.3,0.8,0.7,1.1,1.1s0.4,1,0.4,1.7c0,0.2,0,0.3,0,0.5c0,0.1,0,0.3,0,0.4h-5.6v-1.1h5l-0.7,0.2
	c0-0.6-0.2-1.1-0.5-1.5c-0.3-0.3-0.8-0.5-1.3-0.5c-0.4,0-0.8,0.1-1,0.3s-0.5,0.5-0.7,0.8c-0.2,0.4-0.2,0.8-0.2,1.3
	c0,0.5,0.1,1,0.3,1.3c0.2,0.4,0.4,0.6,0.7,0.8c0.3,0.2,0.7,0.3,1.1,0.3c0.5,0,0.8-0.1,1.1-0.3c0.3-0.2,0.5-0.4,0.7-0.7l1.2,0.6
	c-0.2,0.3-0.4,0.6-0.7,0.9c-0.3,0.2-0.6,0.4-1,0.6C318.7,34.1,318.2,34.1,317.8,34.1z M322.8,34v-7h1.3l0.1,1.8l-0.2-0.2
	c0.1-0.4,0.3-0.7,0.6-1c0.3-0.3,0.5-0.5,0.9-0.6c0.3-0.1,0.7-0.2,1.1-0.2c0.5,0,0.9,0.1,1.3,0.3c0.4,0.2,0.7,0.5,1,0.9
	c0.2,0.4,0.3,0.9,0.3,1.5V34h-1.5v-4.1c0-0.7-0.1-1.2-0.4-1.4c-0.3-0.3-0.6-0.4-1.1-0.4c-0.3,0-0.6,0.1-0.9,0.2
	c-0.3,0.1-0.5,0.4-0.7,0.7c-0.2,0.3-0.3,0.7-0.3,1.3V34H322.8z M333.4,24.9v7c0,0.3,0.1,0.6,0.3,0.8c0.2,0.2,0.4,0.2,0.7,0.2
	c0.3,0,0.5,0,0.7-0.1c0.2-0.1,0.4-0.2,0.5-0.3l0.3,1.1c-0.2,0.2-0.5,0.3-0.8,0.4c-0.3,0.1-0.7,0.2-1,0.2c-0.4,0-0.8-0.1-1.1-0.2
	s-0.6-0.3-0.8-0.6c-0.2-0.3-0.3-0.7-0.3-1.2v-6.8L333.4,24.9z M335.8,27v1.2h-5.2V27H335.8z M340,34.1c-0.7,0-1.3-0.1-1.9-0.4
	c-0.6-0.3-1-0.7-1.4-1.1l1-0.9c0.2,0.4,0.5,0.7,0.9,0.9c0.4,0.2,0.9,0.3,1.4,0.3c0.4,0,0.8-0.1,1-0.2c0.3-0.1,0.4-0.4,0.4-0.6
	c0-0.2-0.1-0.3-0.2-0.5c-0.1-0.1-0.3-0.2-0.7-0.3l-1.5-0.3c-0.7-0.1-1.3-0.4-1.6-0.7c-0.3-0.3-0.5-0.8-0.5-1.3
	c0-0.4,0.1-0.7,0.3-1.1s0.6-0.6,1-0.8c0.4-0.2,1-0.3,1.6-0.3c0.7,0,1.3,0.1,1.8,0.4c0.5,0.2,0.9,0.6,1.1,1l-1,0.9
	c-0.2-0.4-0.4-0.6-0.8-0.8c-0.3-0.2-0.7-0.3-1.1-0.3c-0.3,0-0.6,0-0.8,0.1c-0.2,0.1-0.4,0.2-0.5,0.3c-0.1,0.1-0.2,0.3-0.2,0.5
	c0,0.2,0.1,0.4,0.2,0.5c0.1,0.1,0.4,0.2,0.8,0.3l1.6,0.3c0.7,0.1,1.1,0.4,1.4,0.7c0.3,0.3,0.4,0.7,0.4,1.1s-0.1,0.8-0.4,1.2
	c-0.2,0.3-0.6,0.6-1,0.8C341.1,34,340.6,34.1,340,34.1z"/>
</svg>
