<?xml version="1.0" encoding="utf-8"?>
<!-- Generator: Adobe Illustrator 25.2.0, SVG Export Plug-In . SVG Version: 6.00 Build 0)  -->
<svg version="1.0" id="Calque_1" xmlns="http://www.w3.org/2000/svg" xmlns:xlink="http://www.w3.org/1999/xlink" x="0px" y="0px"
	 viewBox="0 0 17 17" style="enable-background:new 0 0 17 17;" xml:space="preserve">
<style type="text/css">
	.st0{fill:#FFFFFF;}
</style>
<rect x="2.9" y="2.8" class="st0" width="11.9" height="11.3"/>
<path d="M15,0H2C0.9,0,0,0.9,0,2v13c0,1.1,0.9,2,2,2h13c1.1,0,2-0.9,2-2V2C17,0.9,16.1,0,15,0z M14.1,8.7l-1.3,1.3
	c-0.1,0.1-0.2,0.1-0.4,0.1c-0.1,0-0.1,0-0.2,0C12.1,10,12,9.8,12,9.6V8.8H9.2v2.8H10c0.2,0,0.4,0.1,0.5,0.3c0.1,0.2,0,0.4-0.1,0.6
	l-1.3,1.3c-0.1,0.1-0.2,0.1-0.4,0.1c-0.1,0-0.3,0-0.4-0.1l-1.3-1.3c-0.1-0.1-0.2-0.4-0.1-0.6s0.3-0.3,0.5-0.3h0.8V8.8H5.4v0.8
	c0,0.2-0.1,0.4-0.3,0.5c-0.1,0-0.1,0-0.2,0c-0.1,0-0.3-0.1-0.4-0.1L3.3,8.7c-0.2-0.2-0.2-0.5,0-0.7l1.3-1.3c0.1-0.1,0.4-0.2,0.6-0.1
	C5.3,6.7,5.4,6.8,5.4,7v0.8h2.8V5H7.4C7.2,5,7.1,4.9,7,4.7c-0.1-0.2,0-0.4,0.1-0.6l1.3-1.3c0.2-0.2,0.5-0.2,0.7,0l1.3,1.3
	c0.1,0.1,0.2,0.4,0.1,0.6C10.4,4.9,10.2,5,10,5H9.2v2.8H12V7c0-0.2,0.1-0.4,0.3-0.5c0.2-0.1,0.4,0,0.6,0.1l1.3,1.3
	C14.3,8.1,14.3,8.5,14.1,8.7z"/>
</svg>
