<svg xmlns="http://www.w3.org/2000/svg" width="420" height="169" fill="none" xmlns:v="https://vecta.io/nano"><path d="M237 28h-56a1 1 0 0 0-1 1v44a1 1 0 0 0 1 1h56a1 1 0 0 0 1-1V29a1 1 0 0 0-1-1zm-1 44h-54V30h54v42zm-40-21.862c3.071 0 5.569-2.498 5.569-5.568A5.58 5.58 0 0 0 196 39c-3.071 0-5.569 2.498-5.569 5.569s2.498 5.569 5.569 5.569zM196 41c1.968 0 3.569 1.602 3.569 3.569s-1.601 3.569-3.569 3.569-3.569-1.601-3.569-3.568S194.032 41 196 41zm-9 27c.234 0 .47-.082.66-.249l16.313-14.362 10.302 10.301a1 1 0 0 0 1.414-1.414l-4.807-4.807 9.181-10.054 11.261 10.323a1 1 0 1 0 1.351-1.475l-12-11a1.03 1.03 0 0 0-.72-.262 1 1 0 0 0-.694.325l-9.794 10.727-4.743-4.743a1 1 0 0 0-1.368-.044l-17.017 14.983a1 1 0 0 0-.09 1.412c.198.225.474.339.751.339z" fill="#b9c5cc"/><rect x="123" y="95" width="173" height="36" rx="18" fill="#cbd6dc"/><path d="M160.949 109.992v7.084h-1.302v-7.084h1.302zm2.786 2.912v1.246h-6.888v-1.246h6.888zM177.631 118h-1.582l-.882-2.422h-3.878l-.882 2.422h-1.54l3.486-9.24h1.792l3.486 9.24zm-5.922-3.64h3.038l-1.512-4.312-1.526 4.312zm8.106-4.536c-.326 0-.578-.079-.756-.238-.168-.168-.252-.401-.252-.7s.084-.527.252-.686c.178-.159.43-.238.756-.238.318 0 .56.079.728.238.178.159.266.387.266.686s-.088.532-.266.7c-.168.159-.41.238-.728.238zm.742 1.176v7.616c0 .597-.112 1.069-.336 1.414-.214.355-.499.607-.854.756a2.76 2.76 0 0 1-1.106.224 2.83 2.83 0 0 1-.868-.126c-.261-.084-.48-.196-.658-.336l.252-1.204a1.71 1.71 0 0 0 .476.28c.178.075.378.112.602.112.299 0 .537-.098.714-.294.187-.187.28-.509.28-.966V111h1.498zm5.382-.14c.682 0 1.284.145 1.806.434s.929.709 1.218 1.26c.299.541.448 1.19.448 1.946s-.149 1.409-.448 1.96a3.01 3.01 0 0 1-1.218 1.246c-.522.289-1.124.434-1.806.434s-1.283-.145-1.806-.434a3.11 3.11 0 0 1-1.232-1.246c-.298-.551-.448-1.204-.448-1.96s.15-1.405.448-1.946c.299-.551.71-.971 1.232-1.26s1.125-.434 1.806-.434zm0 1.176c-.42 0-.779.098-1.078.294-.289.187-.513.462-.672.826s-.238.812-.238 1.344c0 .523.08.971.238 1.344.159.364.383.644.672.84.299.187.658.28 1.078.28s.775-.093 1.064-.28c.29-.196.514-.476.672-.84.159-.373.238-.821.238-1.344 0-.532-.079-.98-.238-1.344s-.382-.639-.672-.826c-.289-.196-.644-.294-1.064-.294zm7.849 6.104c-.458 0-.882-.084-1.274-.252a2.04 2.04 0 0 1-.924-.812c-.234-.373-.35-.859-.35-1.456V111h1.498v4.242c0 .635.135 1.073.406 1.316.27.233.648.35 1.134.35.233 0 .457-.037.672-.112a1.78 1.78 0 0 0 .602-.378c.177-.177.312-.401.406-.672.102-.271.154-.588.154-.952V111h1.498v7h-1.316l-.07-1.134c-.243.439-.57.761-.98.966s-.896.308-1.456.308zm8.206-9.198v6.958c0 .345.089.597.266.756.187.159.434.238.742.238a1.76 1.76 0 0 0 .658-.112c.187-.084.359-.196.518-.336l.336 1.092c-.215.187-.481.336-.798.448-.308.103-.653.154-1.036.154a3.02 3.02 0 0 1-1.106-.196c-.336-.131-.597-.341-.784-.63-.187-.299-.285-.686-.294-1.162v-6.79l1.498-.42zm2.408 2.058v1.176h-5.25V111h5.25zm4.562 7.14c-.7 0-1.316-.145-1.848-.434s-.948-.705-1.246-1.246c-.29-.551-.434-1.204-.434-1.96s.144-1.405.434-1.946c.298-.551.709-.971 1.232-1.26s1.115-.434 1.778-.434c.681 0 1.26.14 1.736.42s.84.663 1.092 1.148.378 1.036.378 1.652l-.014.476-.042.392h-5.628V113.8h4.97l-.742.224c0-.635-.159-1.12-.476-1.456-.318-.345-.752-.518-1.302-.518-.402 0-.752.093-1.05.28s-.528.467-.686.84c-.159.364-.238.812-.238 1.344 0 .523.084.966.252 1.33s.406.639.714.826.672.28 1.092.28c.466 0 .844-.089 1.134-.266s.518-.425.686-.742l1.19.56c-.168.336-.397.63-.686.882-.28.243-.616.429-1.008.56s-.822.196-1.288.196zm5.013-.14v-7h1.274l.14 1.26c.187-.457.462-.803.826-1.036.374-.243.831-.364 1.372-.364.14 0 .28.014.42.042.14.019.257.051.35.098l-.21 1.316a1.78 1.78 0 0 0-.35-.084 2.35 2.35 0 0 0-.504-.042c-.289 0-.574.079-.854.238-.28.149-.513.378-.7.686-.177.308-.266.7-.266 1.176V118h-1.498zm10.049 2.94V111h1.33l.112 1.96-.196-.238c.112-.364.285-.686.518-.966a2.45 2.45 0 0 1 .868-.658 2.81 2.81 0 0 1 1.162-.238 2.89 2.89 0 0 1 1.554.434c.467.289.836.705 1.106 1.246.271.532.406 1.181.406 1.946s-.14 1.423-.42 1.974c-.27.541-.644.957-1.12 1.246-.466.289-.989.434-1.568.434-.597 0-1.106-.154-1.526-.462-.42-.317-.718-.719-.896-1.204l.168-.238v4.704h-1.498zm3.43-4.018c.607 0 1.078-.215 1.414-.644.346-.429.518-1.022.518-1.778s-.168-1.349-.504-1.778c-.336-.439-.802-.658-1.4-.658-.392 0-.737.103-1.036.308-.289.196-.518.476-.686.84-.158.355-.238.784-.238 1.288 0 .495.08.924.238 1.288s.383.644.672.84a1.78 1.78 0 0 0 1.022.294zm5.348 1.078v-10.15h1.498v4.27c.233-.439.546-.756.938-.952.401-.205.844-.308 1.33-.308.494 0 .938.098 1.33.294.401.187.718.471.952.854s.35.868.35 1.456V118h-1.498v-4.06c0-.691-.145-1.171-.434-1.442-.28-.271-.635-.406-1.064-.406a1.99 1.99 0 0 0-.896.224c-.29.14-.532.373-.728.7-.187.317-.28.747-.28 1.288V118h-1.498zm11.706-7.14c.681 0 1.283.145 1.806.434s.928.709 1.218 1.26c.298.541.448 1.19.448 1.946s-.15 1.409-.448 1.96c-.29.541-.696.957-1.218 1.246s-1.125.434-1.806.434-1.284-.145-1.806-.434-.934-.705-1.232-1.246c-.299-.551-.448-1.204-.448-1.96s.149-1.405.448-1.946c.298-.551.709-.971 1.232-1.26s1.124-.434 1.806-.434zm0 1.176c-.42 0-.78.098-1.078.294-.29.187-.514.462-.672.826s-.238.812-.238 1.344c0 .523.079.971.238 1.344.158.364.382.644.672.84.298.187.658.28 1.078.28s.774-.093 1.064-.28c.289-.196.513-.476.672-.84.158-.373.238-.821.238-1.344 0-.532-.08-.98-.238-1.344s-.383-.639-.672-.826c-.29-.196-.644-.294-1.064-.294zm7.304-3.094v6.958c0 .345.089.597.266.756.187.159.434.238.742.238.252 0 .472-.037.658-.112.187-.084.36-.196.518-.336l.336 1.092c-.214.187-.48.336-.798.448-.308.103-.653.154-1.036.154a3.02 3.02 0 0 1-1.106-.196c-.336-.131-.597-.341-.784-.63-.186-.299-.284-.686-.294-1.162v-6.79l1.498-.42zm2.408 2.058v1.176h-5.25V111h5.25zm4.52-.14c.681 0 1.283.145 1.806.434s.929.709 1.218 1.26c.299.541.448 1.19.448 1.946s-.149 1.409-.448 1.96a3.01 3.01 0 0 1-1.218 1.246c-.523.289-1.125.434-1.806.434s-1.283-.145-1.806-.434-.933-.705-1.232-1.246c-.299-.551-.448-1.204-.448-1.96s.149-1.405.448-1.946c.299-.551.709-.971 1.232-1.26s1.125-.434 1.806-.434zm0 1.176c-.42 0-.779.098-1.078.294-.289.187-.513.462-.672.826s-.238.812-.238 1.344c0 .523.079.971.238 1.344.159.364.383.644.672.84.299.187.658.28 1.078.28s.775-.093 1.064-.28c.289-.196.513-.476.672-.84.159-.373.238-.821.238-1.344 0-.532-.079-.98-.238-1.344s-.383-.639-.672-.826c-.289-.196-.644-.294-1.064-.294z" fill="#306685"/><path d="M164.606 141.04c-.18 0-.326-.053-.44-.16-.106-.113-.16-.26-.16-.44s.054-.323.16-.43c.114-.113.26-.17.44-.17s.324.057.43.17a.56.56 0 0 1 .17.43c0 .18-.056.327-.17.44-.106.107-.25.16-.43.16zm.4.96v5.51c0 .413-.08.74-.24.98s-.356.41-.59.51a1.74 1.74 0 0 1-.69.15c-.206 0-.396-.033-.57-.1a1.4 1.4 0 0 1-.43-.23l.17-.76a1.21 1.21 0 0 0 .35.22c.14.06.297.09.47.09.214 0 .387-.07.52-.21.14-.14.21-.383.21-.73V142h.8zm1.857 7.1V142h.7l.07 1.22-.11-.14a1.66 1.66 0 0 1 .39-.61c.173-.18.383-.32.63-.42s.513-.15.8-.15c.406 0 .78.103 1.12.31a2.24 2.24 0 0 1 .83.89c.206.387.31.853.31 1.4 0 .54-.107 1.007-.32 1.4a2.24 2.24 0 0 1-.83.89c-.347.207-.727.31-1.14.31s-.777-.1-1.09-.3c-.307-.207-.527-.467-.66-.78l.1-.15v3.23h-.8zm2.37-2.7c.493 0 .876-.173 1.15-.52.28-.347.42-.807.42-1.38s-.137-1.033-.41-1.38c-.267-.347-.644-.52-1.13-.52-.32 0-.6.08-.84.24-.24.153-.427.373-.56.66-.134.28-.2.613-.2 1 0 .38.063.713.19 1 .133.287.316.51.55.67a1.51 1.51 0 0 0 .83.23zm8.109-5.32l.18.71h-.03-.04c-.327 0-.58.067-.76.2-.173.127-.26.333-.26.62l-.49-.25c0-.26.06-.487.18-.68a1.16 1.16 0 0 1 .49-.44c.207-.107.433-.16.68-.16h.02.03zm-1.52 5.28c.473 0 .843.11 1.11.33.267.213.4.5.4.86 0 .327-.11.61-.33.85-.213.24-.503.423-.87.55-.36.133-.767.2-1.22.2-.787 0-1.377-.133-1.77-.4-.387-.267-.58-.587-.58-.96 0-.267.087-.507.26-.72.18-.207.48-.323.9-.35l-.07.15c-.227-.06-.42-.16-.58-.3-.153-.147-.23-.357-.23-.63s.1-.507.3-.7c.207-.2.51-.323.91-.37l.53.27h-.1c-.327.033-.56.117-.7.25-.133.127-.2.267-.2.42 0 .187.067.327.2.42.14.087.333.13.58.13h1.46zm-.92 2.12c.387 0 .703-.04.95-.12.253-.08.44-.183.56-.31s.18-.263.18-.41c0-.18-.073-.323-.22-.43-.14-.107-.397-.16-.77-.16h-1.54c-.213 0-.393.053-.54.16a.55.55 0 0 0-.22.46c0 .247.14.443.42.59.287.147.68.22 1.18.22zm-.07-6.58c.4 0 .753.073 1.06.22a1.7 1.7 0 0 1 .73.59c.173.253.26.547.26.88 0 .327-.087.62-.26.88-.173.253-.417.453-.73.6-.307.14-.66.21-1.06.21-.66 0-1.167-.157-1.52-.47-.353-.32-.53-.727-.53-1.22 0-.333.087-.627.26-.88a1.78 1.78 0 0 1 .73-.59c.307-.147.66-.22 1.06-.22zm0 .65c-.347 0-.637.097-.87.29-.233.187-.35.437-.35.75a.93.93 0 0 0 .35.75c.233.193.523.29.87.29s.637-.097.87-.29a.93.93 0 0 0 .35-.75c0-.313-.117-.563-.35-.75-.233-.193-.523-.29-.87-.29zm4.022 3.25a.61.61 0 0 1 .4.13c.114.08.2.193.26.34.06.14.09.307.09.5 0 .22-.04.437-.12.65a1.73 1.73 0 0 1-.35.59c-.16.18-.366.33-.62.45l-.42-.39c.18-.06.337-.143.47-.25a1.44 1.44 0 0 0 .34-.36c.087-.133.144-.27.17-.41l-.04-.02c-.026.02-.06.037-.1.05s-.1.02-.18.02-.163-.023-.25-.07c-.08-.047-.15-.113-.21-.2-.06-.093-.09-.213-.09-.36a.63.63 0 0 1 .09-.33c.06-.107.137-.19.23-.25a.63.63 0 0 1 .33-.09zm5.665 3.3V142h.7l.07 1.22-.11-.14c.087-.233.217-.437.39-.61.173-.18.383-.32.63-.42a2.11 2.11 0 0 1 .8-.15 2.11 2.11 0 0 1 1.12.31c.347.207.623.503.83.89s.31.853.31 1.4c0 .54-.107 1.007-.32 1.4-.207.387-.483.683-.83.89s-.727.31-1.14.31-.777-.1-1.09-.3c-.307-.207-.527-.467-.66-.78l.1-.15v3.23h-.8zm2.37-2.7c.493 0 .877-.173 1.15-.52.28-.347.42-.807.42-1.38s-.137-1.033-.41-1.38c-.267-.347-.643-.52-1.13-.52-.32 0-.6.08-.84.24-.24.153-.427.373-.56.66-.133.28-.2.613-.2 1 0 .38.063.713.19 1 .133.287.317.51.55.67a1.51 1.51 0 0 0 .83.23zm3.899.6v-5h.7l.07 1.12-.13-.11c.107-.267.25-.48.43-.64a1.61 1.61 0 0 1 .62-.36 2.53 2.53 0 0 1 .74-.11c.36 0 .687.07.98.21.294.133.527.34.7.62.18.28.27.637.27 1.07v3.2h-.8v-2.92c0-.553-.12-.937-.36-1.15-.233-.22-.523-.33-.87-.33-.24 0-.48.057-.72.17s-.44.297-.6.55c-.153.253-.23.593-.23 1.02V147h-.8zm10.402-5.92l.18.71h-.03-.04c-.327 0-.58.067-.76.2-.174.127-.26.333-.26.62l-.49-.25c0-.26.06-.487.18-.68a1.16 1.16 0 0 1 .49-.44c.206-.107.433-.16.68-.16h.02.03zm-1.52 5.28c.473 0 .843.11 1.11.33.266.213.4.5.4.86 0 .327-.11.61-.33.85-.214.24-.504.423-.87.55-.36.133-.767.2-1.22.2-.787 0-1.377-.133-1.77-.4-.387-.267-.58-.587-.58-.96 0-.267.086-.507.26-.72.18-.207.48-.323.9-.35l-.07.15c-.227-.06-.42-.16-.58-.3-.154-.147-.23-.357-.23-.63s.1-.507.3-.7c.206-.2.51-.323.91-.37l.53.27h-.1c-.327.033-.56.117-.7.25-.134.127-.2.267-.2.42 0 .187.066.327.2.42.14.087.333.13.58.13h1.46zm-.92 2.12c.386 0 .703-.04.95-.12.253-.08.44-.183.56-.31s.18-.263.18-.41c0-.18-.074-.323-.22-.43-.14-.107-.397-.16-.77-.16h-1.54c-.214 0-.394.053-.54.16a.55.55 0 0 0-.22.46c0 .247.14.443.42.59.286.147.68.22 1.18.22zm-.07-6.58c.4 0 .753.073 1.06.22.313.14.556.337.73.59s.26.547.26.88c0 .327-.087.62-.26.88a1.78 1.78 0 0 1-.73.6c-.307.14-.66.21-1.06.21-.66 0-1.167-.157-1.52-.47a1.57 1.57 0 0 1-.53-1.22c0-.333.086-.627.26-.88a1.78 1.78 0 0 1 .73-.59c.306-.147.66-.22 1.06-.22zm0 .65c-.347 0-.637.097-.87.29a.91.91 0 0 0-.35.75c0 .307.116.557.35.75s.523.29.87.29.636-.097.87-.29a.93.93 0 0 0 .35-.75c0-.313-.117-.563-.35-.75-.234-.193-.524-.29-.87-.29zm7.58-.65c.194 0 .35.06.47.18s.18.277.18.47-.06.35-.18.47-.276.18-.47.18-.35-.06-.47-.18-.18-.277-.18-.47.06-.35.18-.47.277-.18.47-.18zm0 3.9c.194 0 .35.06.47.18s.18.277.18.47-.06.35-.18.47-.276.18-.47.18-.35-.06-.47-.18-.18-.277-.18-.47.06-.35.18-.47.277-.18.47-.18zm8.547 1.2v-1.73h-3.22v-.59l3.01-4.28h1.01v4.18h1.17v.69h-1.17V147h-.8zm-2.37-2.42h2.37v-2.47l.01-.53.03-.53h-.02c-.08.167-.183.353-.31.56l-.35.54-1.73 2.43zm5.754 2.42v-5h.7l.05.78c.18-.307.413-.53.7-.67.293-.14.593-.21.9-.21a2.17 2.17 0 0 1 1 .24 1.62 1.62 0 0 1 .72.74 1.39 1.39 0 0 1 .45-.55c.193-.147.403-.253.63-.32.233-.073.453-.11.66-.11a2.14 2.14 0 0 1 .91.2 1.7 1.7 0 0 1 .72.62c.186.28.28.64.28 1.08v3.2h-.8v-3.12c0-.453-.114-.78-.34-.98s-.507-.3-.84-.3c-.26 0-.504.063-.73.19a1.43 1.43 0 0 0-.55.56c-.134.247-.2.55-.2.91V147h-.8v-3.12c0-.453-.114-.78-.34-.98s-.507-.3-.84-.3c-.22 0-.447.06-.68.18-.227.113-.417.297-.57.55s-.23.587-.23 1V147h-.8zm11.601-5.1c.473 0 .89.103 1.25.31a2.16 2.16 0 0 1 .86.9c.207.387.31.85.31 1.39s-.103 1.007-.31 1.4a2.17 2.17 0 0 1-.86.89c-.36.207-.777.31-1.25.31-.467 0-.883-.103-1.25-.31a2.17 2.17 0 0 1-.86-.89c-.207-.393-.31-.86-.31-1.4s.103-1.003.31-1.39a2.16 2.16 0 0 1 .86-.9c.367-.207.783-.31 1.25-.31zm0 .69c-.34 0-.63.077-.87.23s-.427.373-.56.66c-.127.28-.19.62-.19 1.02 0 .393.063.733.19 1.02.133.287.32.507.56.66s.53.23.87.23.63-.077.87-.23.423-.373.55-.66c.133-.287.2-.627.2-1.02 0-.4-.067-.74-.2-1.02-.127-.287-.31-.507-.55-.66s-.53-.23-.87-.23zm7.334 4.41v-5h.7l.05.78c.18-.307.414-.53.7-.67.294-.14.594-.21.9-.21.354 0 .687.08 1 .24a1.61 1.61 0 0 1 .72.74c.107-.227.257-.41.45-.55.194-.147.404-.253.63-.32.234-.073.454-.11.66-.11.32 0 .624.067.91.2a1.69 1.69 0 0 1 .72.62c.187.28.28.64.28 1.08v3.2h-.8v-3.12c0-.453-.113-.78-.34-.98s-.506-.3-.84-.3a1.47 1.47 0 0 0-.73.19c-.226.127-.41.313-.55.56-.133.247-.2.55-.2.91V147h-.8v-3.12c0-.453-.113-.78-.34-.98s-.506-.3-.84-.3c-.22 0-.446.06-.68.18-.226.113-.416.297-.57.55s-.23.587-.23 1V147h-.8zm12.452-3.23c0-.373-.1-.66-.3-.86-.2-.207-.484-.31-.85-.31-.347 0-.64.077-.88.23-.24.147-.417.387-.53.72l-.65-.4c.133-.373.38-.673.74-.9.36-.233.806-.35 1.34-.35.36 0 .686.063.98.19.293.12.523.307.69.56.173.247.26.567.26.96v2.42c0 .24.126.36.38.36.126 0 .25-.017.37-.05l-.04.63c-.134.067-.307.1-.52.1-.194 0-.367-.037-.52-.11a.81.81 0 0 1-.36-.33c-.087-.153-.13-.343-.13-.57v-.1l.2.03a1.35 1.35 0 0 1-.41.64 2.01 2.01 0 0 1-.65.36c-.24.073-.477.11-.71.11a2.21 2.21 0 0 1-.82-.15 1.39 1.39 0 0 1-.61-.45c-.147-.207-.22-.46-.22-.76 0-.373.123-.68.37-.92.253-.247.603-.413 1.05-.5l1.98-.39v.66l-1.61.33c-.327.067-.57.16-.73.28a.59.59 0 0 0-.24.5c0 .207.08.377.24.51.166.127.4.19.7.19a2.1 2.1 0 0 0 .55-.07c.18-.053.34-.13.48-.23.14-.107.25-.237.33-.39.08-.16.12-.347.12-.56v-1.38zm3.224-1.77l1.49 2.09.05.07 2.05 2.84h-.98l-1.55-2.17-.09-.11-1.97-2.72h1zm3.56 0l-1.98 2.67h-.05l-1.72 2.33h-.93l2.18-2.87h.06l1.5-2.13h.94z" fill="#444"/></svg>