<svg xmlns="http://www.w3.org/2000/svg" width="17" height="17" fill="none" xmlns:v="https://vecta.io/nano"><rect width="17" height="17" rx="2" fill="#000"/><g clip-path="url(#A)"><path fill-rule="evenodd" d="M10.6 5.8v-.9a.9.9 0 0 0-.9-.9H7.3a.9.9 0 0 0-.9.9v.9H4v.6h.6v5.7a.9.9 0 0 0 .9.9h6a.9.9 0 0 0 .9-.9V6.4h.6v-.6h-2.4zM7 4.9a.3.3 0 0 1 .3-.3h2.4a.3.3 0 0 1 .3.3v.9H7v-.9zm1.2 3.3v3h.6v-3h-.6zm-1.8 3V9.4H7v1.8h-.6zM10 9.4v1.8h.6V9.4H10z" fill="#fff"/></g><defs><clipPath id="A"><path fill="#fff" transform="translate(4 4)" d="M0 0h9v9H0z"/></clipPath></defs></svg>